M48
; DRILL file {KiCad 5.1.9-1.fc33} date Thu Feb  4 09:32:05 2021
; FORMAT={-:-/ absolute / inch / decimal}
; #@! TF.CreationDate,2021-02-04T09:32:05-05:00
; #@! TF.GenerationSoftware,Kicad,Pcbnew,5.1.9-1.fc33
FMAT,2
INCH
T1C0.0394
%
G90
G05
T1
X3.5323Y-5.6972
X3.5323Y-5.7972
X3.626Y-5.0169
X3.626Y-5.1169
X3.6293Y-5.3551
X3.6293Y-5.4551
X3.6323Y-5.6972
X3.6323Y-5.7972
X3.7293Y-5.3551
X3.7293Y-5.4551
X3.7323Y-5.6972
X3.7323Y-5.7972
X3.8293Y-5.3551
X3.8293Y-5.4551
X3.8323Y-5.6972
X3.8323Y-5.7972
X3.9293Y-5.3551
X3.9293Y-5.4551
X3.9323Y-5.6972
X3.9323Y-5.7972
X4.0293Y-5.3551
X4.0293Y-5.4551
X4.0323Y-5.6972
X4.0323Y-5.7972
X4.1293Y-5.3551
X4.1293Y-5.4551
X4.2283Y-5.0189
X4.2283Y-5.7004
X4.2283Y-5.8016
X4.2293Y-5.3551
X4.2293Y-5.4551
X4.3283Y-5.0189
X4.3283Y-5.7004
X4.3283Y-5.8016
X4.3293Y-5.3551
X4.3293Y-5.4551
X4.4283Y-5.0189
X4.4283Y-5.7004
X4.4283Y-5.8016
X4.4293Y-5.3551
X4.4293Y-5.4551
X4.5283Y-5.0189
X4.5283Y-5.8016
X4.5293Y-5.3551
X4.5293Y-5.4551
X4.6283Y-5.0189
X4.6283Y-5.8016
X4.6293Y-5.3551
X4.6293Y-5.4551
X4.7283Y-5.0189
X4.7283Y-5.8016
X4.7293Y-5.3551
X4.7293Y-5.4551
X4.8283Y-5.0189
X4.8283Y-5.8016
X4.8293Y-5.3551
X4.8293Y-5.4551
X4.9283Y-5.0189
X4.9283Y-5.8016
X4.9293Y-5.3551
X4.9293Y-5.4551
X5.0283Y-5.0189
X5.0283Y-5.8016
X5.0293Y-5.3551
X5.0293Y-5.4551
X5.1283Y-5.0189
X5.1283Y-5.8016
X5.1293Y-5.3551
X5.1293Y-5.4551
X5.2283Y-5.0189
X5.2283Y-5.8016
X5.2293Y-5.3551
X5.2293Y-5.4551
X5.3283Y-5.0189
X5.3283Y-5.8016
X5.3293Y-5.3551
X5.3293Y-5.4551
X5.4283Y-5.0189
X5.4283Y-5.8016
X5.4293Y-5.3551
X5.4293Y-5.4551
X5.5283Y-5.0189
X5.5283Y-5.8016
X5.5293Y-5.3551
X5.5293Y-5.4551
T0
M30
