M48
; DRILL file {KiCad 5.1.8-1.fc33} date Sun Nov 22 16:18:17 2020
; FORMAT={2:4/ absolute / inch / suppress leading zeros}
; #@! TF.CreationDate,2020-11-22T16:18:17-05:00
; #@! TF.GenerationSoftware,Kicad,Pcbnew,5.1.8-1.fc33
FMAT,2
INCH,TZ
T1C0.0394
%
G90
G05
T1
X42283Y-57004
X43283Y-57004
X44283Y-57004
X35323Y-56972
X35323Y-57972
X36323Y-56972
X36323Y-57972
X37323Y-56972
X37323Y-57972
X38323Y-56972
X38323Y-57972
X39323Y-56972
X39323Y-57972
X40323Y-56972
X40323Y-57972
X36293Y-53551
X36293Y-54551
X37293Y-53551
X37293Y-54551
X38293Y-53551
X38293Y-54551
X39293Y-53551
X39293Y-54551
X40293Y-53551
X40293Y-54551
X41293Y-53551
X41293Y-54551
X42293Y-53551
X42293Y-54551
X43293Y-53551
X43293Y-54551
X44293Y-53551
X44293Y-54551
X45293Y-53551
X45293Y-54551
X46293Y-53551
X46293Y-54551
X47293Y-53551
X47293Y-54551
X48293Y-53551
X48293Y-54551
X49293Y-53551
X49293Y-54551
X50293Y-53551
X50293Y-54551
X51293Y-53551
X51293Y-54551
X52293Y-53551
X52293Y-54551
X53293Y-53551
X53293Y-54551
X54293Y-53551
X54293Y-54551
X55293Y-53551
X55293Y-54551
X42283Y-50189
X43283Y-50189
X44283Y-50189
X45283Y-50189
X46283Y-50189
X47283Y-50189
X48283Y-50189
X49283Y-50189
X50283Y-50189
X51283Y-50189
X52283Y-50189
X53283Y-50189
X54283Y-50189
X55283Y-50189
X36260Y-50169
X36260Y-51169
X42283Y-58016
X43283Y-58016
X44283Y-58016
X45283Y-58016
X46283Y-58016
X47283Y-58016
X48283Y-58016
X49283Y-58016
X50283Y-58016
X51283Y-58016
X52283Y-58016
X53283Y-58016
X54283Y-58016
X55283Y-58016
T0
M30
