%TF.GenerationSoftware,KiCad,Pcbnew,5.1.8-1.fc33*%
%TF.CreationDate,2020-11-22T16:24:39-05:00*%
%TF.ProjectId,c1kshim,63316b73-6869-46d2-9e6b-696361645f70,rev?*%
%TF.SameCoordinates,Original*%
%TF.FileFunction,Legend,Top*%
%TF.FilePolarity,Positive*%
%FSLAX46Y46*%
G04 Gerber Fmt 4.6, Leading zero omitted, Abs format (unit mm)*
G04 Created by KiCad (PCBNEW 5.1.8-1.fc33) date 2020-11-22 16:24:39*
%MOMM*%
%LPD*%
G01*
G04 APERTURE LIST*
%ADD10C,0.120000*%
%ADD11C,0.150000*%
G04 APERTURE END LIST*
D10*
%TO.C,J1*%
X106070000Y-148690000D02*
X106070000Y-147360000D01*
X107400000Y-148690000D02*
X106070000Y-148690000D01*
X108670000Y-148690000D02*
X108670000Y-146030000D01*
X108670000Y-146030000D02*
X141750000Y-146030000D01*
X108670000Y-148690000D02*
X141750000Y-148690000D01*
X141750000Y-148690000D02*
X141750000Y-146030000D01*
%TO.C,J2*%
X106070000Y-126150000D02*
X106070000Y-128810000D01*
X139150000Y-126150000D02*
X106070000Y-126150000D01*
X139150000Y-128810000D02*
X106070000Y-128810000D01*
X139150000Y-126150000D02*
X139150000Y-128810000D01*
X140420000Y-126150000D02*
X141750000Y-126150000D01*
X141750000Y-126150000D02*
X141750000Y-127480000D01*
%TO.C,J3*%
X106070000Y-146120000D02*
X106070000Y-144790000D01*
X107400000Y-146120000D02*
X106070000Y-146120000D01*
X108670000Y-146120000D02*
X108670000Y-143460000D01*
X108670000Y-143460000D02*
X113810000Y-143460000D01*
X108670000Y-146120000D02*
X113810000Y-146120000D01*
X113810000Y-146120000D02*
X113810000Y-143460000D01*
%TO.C,J4*%
X90770000Y-126100000D02*
X92100000Y-126100000D01*
X90770000Y-127430000D02*
X90770000Y-126100000D01*
X90770000Y-128700000D02*
X93430000Y-128700000D01*
X93430000Y-128700000D02*
X93430000Y-131300000D01*
X90770000Y-128700000D02*
X90770000Y-131300000D01*
X90770000Y-131300000D02*
X93430000Y-131300000D01*
%TO.C,J12*%
X88390000Y-148580000D02*
X88390000Y-147250000D01*
X89720000Y-148580000D02*
X88390000Y-148580000D01*
X88390000Y-145980000D02*
X88390000Y-143380000D01*
X90990000Y-145980000D02*
X88390000Y-145980000D01*
X90990000Y-148580000D02*
X90990000Y-145980000D01*
X88390000Y-143380000D02*
X103750000Y-143380000D01*
X90990000Y-148580000D02*
X103750000Y-148580000D01*
X103750000Y-148580000D02*
X103750000Y-143380000D01*
%TO.C,J1*%
D11*
X104522380Y-147693333D02*
X105236666Y-147693333D01*
X105379523Y-147740952D01*
X105474761Y-147836190D01*
X105522380Y-147979047D01*
X105522380Y-148074285D01*
X105522380Y-146693333D02*
X105522380Y-147264761D01*
X105522380Y-146979047D02*
X104522380Y-146979047D01*
X104665238Y-147074285D01*
X104760476Y-147169523D01*
X104808095Y-147264761D01*
%TO.C,J2*%
X142202380Y-127813333D02*
X142916666Y-127813333D01*
X143059523Y-127860952D01*
X143154761Y-127956190D01*
X143202380Y-128099047D01*
X143202380Y-128194285D01*
X142297619Y-127384761D02*
X142250000Y-127337142D01*
X142202380Y-127241904D01*
X142202380Y-127003809D01*
X142250000Y-126908571D01*
X142297619Y-126860952D01*
X142392857Y-126813333D01*
X142488095Y-126813333D01*
X142630952Y-126860952D01*
X143202380Y-127432380D01*
X143202380Y-126813333D01*
%TO.C,J3*%
X104522380Y-145123333D02*
X105236666Y-145123333D01*
X105379523Y-145170952D01*
X105474761Y-145266190D01*
X105522380Y-145409047D01*
X105522380Y-145504285D01*
X104522380Y-144742380D02*
X104522380Y-144123333D01*
X104903333Y-144456666D01*
X104903333Y-144313809D01*
X104950952Y-144218571D01*
X104998571Y-144170952D01*
X105093809Y-144123333D01*
X105331904Y-144123333D01*
X105427142Y-144170952D01*
X105474761Y-144218571D01*
X105522380Y-144313809D01*
X105522380Y-144599523D01*
X105474761Y-144694761D01*
X105427142Y-144742380D01*
%TO.C,J4*%
X88666666Y-126452380D02*
X88666666Y-127166666D01*
X88619047Y-127309523D01*
X88523809Y-127404761D01*
X88380952Y-127452380D01*
X88285714Y-127452380D01*
X89571428Y-126785714D02*
X89571428Y-127452380D01*
X89333333Y-126404761D02*
X89095238Y-127119047D01*
X89714285Y-127119047D01*
%TO.C,J12*%
X86842380Y-146789523D02*
X87556666Y-146789523D01*
X87699523Y-146837142D01*
X87794761Y-146932380D01*
X87842380Y-147075238D01*
X87842380Y-147170476D01*
X87842380Y-145789523D02*
X87842380Y-146360952D01*
X87842380Y-146075238D02*
X86842380Y-146075238D01*
X86985238Y-146170476D01*
X87080476Y-146265714D01*
X87128095Y-146360952D01*
X86937619Y-145408571D02*
X86890000Y-145360952D01*
X86842380Y-145265714D01*
X86842380Y-145027619D01*
X86890000Y-144932380D01*
X86937619Y-144884761D01*
X87032857Y-144837142D01*
X87128095Y-144837142D01*
X87270952Y-144884761D01*
X87842380Y-145456190D01*
X87842380Y-144837142D01*
%TD*%
M02*
