%TF.GenerationSoftware,KiCad,Pcbnew,5.1.9-1.fc33*%
%TF.CreationDate,2021-02-04T09:32:01-05:00*%
%TF.ProjectId,c1kshim,63316b73-6869-46d2-9e6b-696361645f70,rev?*%
%TF.SameCoordinates,Original*%
%TF.FileFunction,Copper,L1,Top*%
%TF.FilePolarity,Positive*%
%FSLAX46Y46*%
G04 Gerber Fmt 4.6, Leading zero omitted, Abs format (unit mm)*
G04 Created by KiCad (PCBNEW 5.1.9-1.fc33) date 2021-02-04 09:32:01*
%MOMM*%
%LPD*%
G01*
G04 APERTURE LIST*
%TA.AperFunction,ComponentPad*%
%ADD10R,1.700000X1.700000*%
%TD*%
%TA.AperFunction,ComponentPad*%
%ADD11O,1.700000X1.700000*%
%TD*%
%TA.AperFunction,Conductor*%
%ADD12C,0.250000*%
%TD*%
G04 APERTURE END LIST*
D10*
%TO.P,J1,1*%
%TO.N,/GPIO0*%
X107400000Y-147360000D03*
D11*
%TO.P,J1,2*%
%TO.N,/XLED0*%
X109940000Y-147360000D03*
%TO.P,J1,3*%
%TO.N,/XLED1*%
X112480000Y-147360000D03*
%TO.P,J1,4*%
%TO.N,/XLED2*%
X115020000Y-147360000D03*
%TO.P,J1,5*%
%TO.N,/XLED3*%
X117560000Y-147360000D03*
%TO.P,J1,6*%
%TO.N,/XLED4*%
X120100000Y-147360000D03*
%TO.P,J1,7*%
%TO.N,/XLED5*%
X122640000Y-147360000D03*
%TO.P,J1,8*%
%TO.N,/GPIO8*%
X125180000Y-147360000D03*
%TO.P,J1,9*%
%TO.N,/ROW0*%
X127720000Y-147360000D03*
%TO.P,J1,10*%
%TO.N,/ROW1*%
X130260000Y-147360000D03*
%TO.P,J1,11*%
%TO.N,/ROW2*%
X132800000Y-147360000D03*
%TO.P,J1,12*%
%TO.N,/COL0*%
X135340000Y-147360000D03*
%TO.P,J1,13*%
%TO.N,/COL1*%
X137880000Y-147360000D03*
%TO.P,J1,14*%
%TO.N,/COL2*%
X140420000Y-147360000D03*
%TD*%
%TO.P,J2,14*%
%TO.N,/VCC5*%
X107400000Y-127480000D03*
%TO.P,J2,13*%
%TO.N,/VIN*%
X109940000Y-127480000D03*
%TO.P,J2,12*%
%TO.N,/VCC33*%
X112480000Y-127480000D03*
%TO.P,J2,11*%
%TO.N,/GND*%
X115020000Y-127480000D03*
%TO.P,J2,10*%
%TO.N,N/C*%
X117560000Y-127480000D03*
%TO.P,J2,9*%
%TO.N,/COL11*%
X120100000Y-127480000D03*
%TO.P,J2,8*%
%TO.N,/COL10*%
X122640000Y-127480000D03*
%TO.P,J2,7*%
%TO.N,/COL9*%
X125180000Y-127480000D03*
%TO.P,J2,6*%
%TO.N,/COL8*%
X127720000Y-127480000D03*
%TO.P,J2,5*%
%TO.N,/COL7*%
X130260000Y-127480000D03*
%TO.P,J2,4*%
%TO.N,/COL6*%
X132800000Y-127480000D03*
%TO.P,J2,3*%
%TO.N,/COL5*%
X135340000Y-127480000D03*
%TO.P,J2,2*%
%TO.N,/COL4*%
X137880000Y-127480000D03*
D10*
%TO.P,J2,1*%
%TO.N,/COL3*%
X140420000Y-127480000D03*
%TD*%
%TO.P,J3,1*%
%TO.N,/GPIO23*%
X107400000Y-144790000D03*
D11*
%TO.P,J3,2*%
%TO.N,/GND*%
X109940000Y-144790000D03*
%TO.P,J3,3*%
%TO.N,/GPIO24*%
X112480000Y-144790000D03*
%TD*%
D10*
%TO.P,J4,1*%
%TO.N,/VIN*%
X92100000Y-127430000D03*
D11*
%TO.P,J4,2*%
%TO.N,/GND*%
X92100000Y-129970000D03*
%TD*%
D10*
%TO.P,J11,1*%
%TO.N,N/C*%
X140445000Y-138560000D03*
D11*
%TO.P,J11,2*%
%TO.N,/VCC5*%
X140445000Y-136020000D03*
%TO.P,J11,3*%
%TO.N,N/C*%
X137905000Y-138560000D03*
%TO.P,J11,4*%
%TO.N,/VCC5*%
X137905000Y-136020000D03*
%TO.P,J11,5*%
%TO.N,N/C*%
X135365000Y-138560000D03*
%TO.P,J11,6*%
%TO.N,/GND*%
X135365000Y-136020000D03*
%TO.P,J11,7*%
%TO.N,/COL2*%
X132825000Y-138560000D03*
%TO.P,J11,8*%
%TO.N,N/C*%
X132825000Y-136020000D03*
%TO.P,J11,9*%
X130285000Y-138560000D03*
%TO.P,J11,10*%
X130285000Y-136020000D03*
%TO.P,J11,11*%
%TO.N,/ROW1*%
X127745000Y-138560000D03*
%TO.P,J11,12*%
%TO.N,/ROW2*%
X127745000Y-136020000D03*
%TO.P,J11,13*%
%TO.N,/COL1*%
X125205000Y-138560000D03*
%TO.P,J11,14*%
%TO.N,N/C*%
X125205000Y-136020000D03*
%TO.P,J11,15*%
%TO.N,/XLED2*%
X122665000Y-138560000D03*
%TO.P,J11,16*%
%TO.N,/XLED3*%
X122665000Y-136020000D03*
%TO.P,J11,17*%
%TO.N,N/C*%
X120125000Y-138560000D03*
%TO.P,J11,18*%
%TO.N,/XLED4*%
X120125000Y-136020000D03*
%TO.P,J11,19*%
%TO.N,/COL8*%
X117585000Y-138560000D03*
%TO.P,J11,20*%
%TO.N,N/C*%
X117585000Y-136020000D03*
%TO.P,J11,21*%
%TO.N,/COL7*%
X115045000Y-138560000D03*
%TO.P,J11,22*%
%TO.N,/XLED5*%
X115045000Y-136020000D03*
%TO.P,J11,23*%
%TO.N,/COL9*%
X112505000Y-138560000D03*
%TO.P,J11,24*%
%TO.N,/COL6*%
X112505000Y-136020000D03*
%TO.P,J11,25*%
%TO.N,N/C*%
X109965000Y-138560000D03*
%TO.P,J11,26*%
%TO.N,/COL5*%
X109965000Y-136020000D03*
%TO.P,J11,27*%
%TO.N,N/C*%
X107425000Y-138560000D03*
%TO.P,J11,28*%
X107425000Y-136020000D03*
%TO.P,J11,29*%
%TO.N,/COL3*%
X104885000Y-138560000D03*
%TO.P,J11,30*%
%TO.N,N/C*%
X104885000Y-136020000D03*
%TO.P,J11,31*%
%TO.N,/COL4*%
X102345000Y-138560000D03*
%TO.P,J11,32*%
%TO.N,/COL10*%
X102345000Y-136020000D03*
%TO.P,J11,33*%
%TO.N,/COL11*%
X99805000Y-138560000D03*
%TO.P,J11,34*%
%TO.N,N/C*%
X99805000Y-136020000D03*
%TO.P,J11,35*%
X97265000Y-138560000D03*
%TO.P,J11,36*%
%TO.N,/ROW0*%
X97265000Y-136020000D03*
%TO.P,J11,37*%
%TO.N,/COL0*%
X94725000Y-138560000D03*
%TO.P,J11,38*%
%TO.N,/XLED0*%
X94725000Y-136020000D03*
%TO.P,J11,39*%
%TO.N,N/C*%
X92185000Y-138560000D03*
%TO.P,J11,40*%
%TO.N,/XLED1*%
X92185000Y-136020000D03*
%TD*%
D10*
%TO.P,J12,1*%
%TO.N,/VCC33*%
X89720000Y-147250000D03*
D11*
%TO.P,J12,2*%
X89720000Y-144710000D03*
%TO.P,J12,3*%
%TO.N,/GND*%
X92260000Y-147250000D03*
%TO.P,J12,4*%
X92260000Y-144710000D03*
%TO.P,J12,5*%
%TO.N,/GPIO24*%
X94800000Y-147250000D03*
%TO.P,J12,6*%
X94800000Y-144710000D03*
%TO.P,J12,7*%
%TO.N,/GPIO23*%
X97340000Y-147250000D03*
%TO.P,J12,8*%
X97340000Y-144710000D03*
%TO.P,J12,9*%
%TO.N,/GPIO8*%
X99880000Y-147250000D03*
%TO.P,J12,10*%
X99880000Y-144710000D03*
%TO.P,J12,11*%
%TO.N,/GPIO0*%
X102420000Y-147250000D03*
%TO.P,J12,12*%
X102420000Y-144710000D03*
%TD*%
D12*
%TO.N,/GPIO0*%
X102420000Y-144710000D02*
X102420000Y-147250000D01*
%TO.N,/XLED0*%
X93549999Y-137195001D02*
X93549999Y-141565001D01*
X94725000Y-136020000D02*
X93549999Y-137195001D01*
X91084999Y-144030001D02*
X91084999Y-148359999D01*
X93549999Y-141565001D02*
X91084999Y-144030001D01*
X108424988Y-148875012D02*
X109940000Y-147360000D01*
X91600012Y-148875012D02*
X108424988Y-148875012D01*
X91084999Y-148359999D02*
X91600012Y-148875012D01*
%TO.N,/XLED4*%
X121300001Y-137195001D02*
X120125000Y-136020000D01*
X121300001Y-146159999D02*
X121300001Y-137195001D01*
X120100000Y-147360000D02*
X121300001Y-146159999D01*
%TO.N,/XLED5*%
X116220001Y-137195001D02*
X115045000Y-136020000D01*
X116220001Y-138934003D02*
X116220001Y-137195001D01*
X118735001Y-141449003D02*
X116220001Y-138934003D01*
X118735001Y-147734003D02*
X118735001Y-141449003D01*
X119535999Y-148535001D02*
X118735001Y-147734003D01*
X121464999Y-148535001D02*
X119535999Y-148535001D01*
X122640000Y-147360000D02*
X121464999Y-148535001D01*
%TO.N,/GPIO8*%
X99880000Y-144710000D02*
X99880000Y-147250000D01*
%TO.N,/ROW1*%
X130260000Y-147360000D02*
X127700000Y-144800000D01*
X127700000Y-138605000D02*
X127745000Y-138560000D01*
X127700000Y-144800000D02*
X127700000Y-138605000D01*
%TO.N,/ROW2*%
X129109999Y-137384999D02*
X127745000Y-136020000D01*
X129109999Y-143669999D02*
X129109999Y-137384999D01*
X132800000Y-147360000D02*
X129109999Y-143669999D01*
%TO.N,/COL0*%
X95900001Y-139735001D02*
X95900001Y-141750001D01*
X94725000Y-138560000D02*
X95900001Y-139735001D01*
X96784977Y-142634977D02*
X112659977Y-142634977D01*
X95900001Y-141750001D02*
X96784977Y-142634977D01*
X116195001Y-146170001D02*
X116195001Y-148325001D01*
X112659977Y-142634977D02*
X116195001Y-146170001D01*
X133714988Y-148985012D02*
X135340000Y-147360000D01*
X116855012Y-148985012D02*
X133714988Y-148985012D01*
X116195001Y-148325001D02*
X116855012Y-148985012D01*
%TO.N,/COL2*%
X132825000Y-139765000D02*
X140420000Y-147360000D01*
X132825000Y-138560000D02*
X132825000Y-139765000D01*
%TO.N,/VCC5*%
X137905000Y-136020000D02*
X140445000Y-136020000D01*
%TO.N,/VIN*%
X93225001Y-126304999D02*
X92100000Y-127430000D01*
X108764999Y-126304999D02*
X93225001Y-126304999D01*
X109940000Y-127480000D02*
X108764999Y-126304999D01*
%TO.N,/VCC33*%
X89720000Y-144710000D02*
X89720000Y-147250000D01*
X111304999Y-128655001D02*
X90714999Y-128655001D01*
X112480000Y-127480000D02*
X111304999Y-128655001D01*
X89720000Y-129650000D02*
X89720000Y-144710000D01*
X90714999Y-128655001D02*
X89720000Y-129650000D01*
%TO.N,/GND*%
X92260000Y-147250000D02*
X92260000Y-144710000D01*
X93885012Y-143084988D02*
X92260000Y-144710000D01*
X108234988Y-143084988D02*
X93885012Y-143084988D01*
X109940000Y-144790000D02*
X108234988Y-143084988D01*
X135365000Y-136020000D02*
X135365000Y-129940000D01*
X136704999Y-128600001D02*
X136704999Y-126160001D01*
X135365000Y-129940000D02*
X136704999Y-128600001D01*
X117095023Y-125404977D02*
X115020000Y-127480000D01*
X135949975Y-125404977D02*
X117095023Y-125404977D01*
X136704999Y-126160001D02*
X135949975Y-125404977D01*
X112530000Y-129970000D02*
X92100000Y-129970000D01*
X115020000Y-127480000D02*
X112530000Y-129970000D01*
%TO.N,/COL10*%
X122640000Y-127480000D02*
X119150000Y-130970000D01*
X107395000Y-130970000D02*
X102345000Y-136020000D01*
X119150000Y-130970000D02*
X107395000Y-130970000D01*
%TO.N,/COL7*%
X125314978Y-132425022D02*
X130260000Y-127480000D01*
X116900976Y-132425022D02*
X125314978Y-132425022D01*
X113869999Y-137384999D02*
X113869999Y-135455999D01*
X115045000Y-138560000D02*
X113869999Y-137384999D01*
X113869999Y-135455999D02*
X116900976Y-132425022D01*
%TO.N,/COL6*%
X124963991Y-131975011D02*
X116549989Y-131975011D01*
X128895001Y-128044001D02*
X124963991Y-131975011D01*
X116549989Y-131975011D02*
X112505000Y-136020000D01*
X128895001Y-126979999D02*
X128895001Y-128044001D01*
X131624999Y-126304999D02*
X129570001Y-126304999D01*
X132800000Y-127480000D02*
X131624999Y-126304999D01*
X129570001Y-126304999D02*
X128895001Y-126979999D01*
%TO.N,/COL5*%
X133714988Y-125854988D02*
X127550012Y-125854988D01*
X135340000Y-127480000D02*
X133714988Y-125854988D01*
X126355001Y-127049999D02*
X126355001Y-128044001D01*
X126355001Y-128044001D02*
X122874002Y-131525000D01*
X127550012Y-125854988D02*
X126355001Y-127049999D01*
X114460000Y-131525000D02*
X109965000Y-136020000D01*
X122874002Y-131525000D02*
X114460000Y-131525000D01*
%TO.N,/GPIO23*%
X97340000Y-144710000D02*
X97340000Y-147250000D01*
X98515001Y-143534999D02*
X97340000Y-144710000D01*
X107244999Y-143534999D02*
X98515001Y-143534999D01*
X107400000Y-143690000D02*
X107244999Y-143534999D01*
X107400000Y-144790000D02*
X107400000Y-143690000D01*
%TO.N,/GPIO24*%
X94800000Y-144710000D02*
X94800000Y-147250000D01*
X111304999Y-145965001D02*
X112480000Y-144790000D01*
X106509997Y-145965001D02*
X111304999Y-145965001D01*
X104049997Y-148425001D02*
X106509997Y-145965001D01*
X95975001Y-148425001D02*
X104049997Y-148425001D01*
X94800000Y-147250000D02*
X95975001Y-148425001D01*
%TD*%
M02*
